HIERARCHY
ROOT Hips
{
	OFFSET 56.877701 -32.693596 43.373703
	CHANNELS 6 Xposition Yposition Zposition Zrotation Xrotation Yrotation
	JOINT Chest
	{
		OFFSET -0.779999 1.005800 5.403099
		CHANNELS 6 Xposition Yposition Zposition Zrotation Xrotation Yrotation
		JOINT Chest2
		{
			OFFSET 0.000000 0.000000 4.236801
			CHANNELS 6 Xposition Yposition Zposition Zrotation Xrotation Yrotation
			JOINT Neck
			{
				OFFSET 0.000000 0.000000 9.874401
				CHANNELS 6 Xposition Yposition Zposition Zrotation Xrotation Yrotation
				JOINT Head
				{
					OFFSET 0.000000 0.000002 2.173893
					CHANNELS 6 Xposition Yposition Zposition Zrotation Xrotation Yrotation
					End Site
					{
						OFFSET 0.000000 0.000000 6.508102
					}
				}
			}
			JOINT LeftCollar
			{
				OFFSET 2.681599 -0.377600 5.432499
				CHANNELS 6 Xposition Yposition Zposition Zrotation Xrotation Yrotation
				JOINT LeftShoulder
				{
					OFFSET 5.161499 0.000000 0.000000
					CHANNELS 6 Xposition Yposition Zposition Zrotation Xrotation Yrotation
					JOINT LeftElbow
					{
						OFFSET 0.000000 0.000000 -10.869099
						CHANNELS 6 Xposition Yposition Zposition Zrotation Xrotation Yrotation
						JOINT LeftWrist
						{
							OFFSET 0.000000 0.000000 -13.344799
							CHANNELS 6 Xposition Yposition Zposition Zrotation Xrotation Yrotation
							End Site
							{
								OFFSET 0.000000 0.000000 -2.173901
							}
						}
					}
				}
			}
			JOINT RightCollar
			{
				OFFSET -2.381901 -1.419600 6.136600
				CHANNELS 6 Xposition Yposition Zposition Zrotation Xrotation Yrotation
				JOINT RightShoulder
				{
					OFFSET -4.550499 0.000000 0.000000
					CHANNELS 6 Xposition Yposition Zposition Zrotation Xrotation Yrotation
					JOINT RightElbow
					{
						OFFSET 0.000000 0.000000 -11.106499
						CHANNELS 6 Xposition Yposition Zposition Zrotation Xrotation Yrotation
						JOINT RightWrist
						{
							OFFSET 0.000000 0.000000 -12.874298
							CHANNELS 6 Xposition Yposition Zposition Zrotation Xrotation Yrotation
							End Site
							{
								OFFSET 0.000000 0.000000 -2.173901
							}
						}
					}
				}
			}
		}
	}
	JOINT LeftHip
	{
		OFFSET 2.431900 0.469601 -2.489399
		CHANNELS 6 Xposition Yposition Zposition Zrotation Xrotation Yrotation
		JOINT LeftKnee
		{
			OFFSET 0.000000 -0.000004 -18.200201
			CHANNELS 6 Xposition Yposition Zposition Zrotation Xrotation Yrotation
			JOINT LeftAnkle
			{
				OFFSET 0.000000 0.000000 -16.279900
				CHANNELS 6 Xposition Yposition Zposition Zrotation Xrotation Yrotation
				End Site
				{
					OFFSET 0.000000 -8.394100 0.000000
				}
			}
		}
	}
	JOINT RightHip
	{
		OFFSET -1.987999 -0.073502 -2.713001
		CHANNELS 6 Xposition Yposition Zposition Zrotation Xrotation Yrotation
		JOINT RightKnee
		{
			OFFSET 0.000000 -0.000004 -19.547802
			CHANNELS 6 Xposition Yposition Zposition Zrotation Xrotation Yrotation
			JOINT RightAnkle
			{
				OFFSET 0.000000 0.000000 -14.881199
				CHANNELS 6 Xposition Yposition Zposition Zrotation Xrotation Yrotation
				End Site
				{
					OFFSET 0.000000 -7.922699 0.000000
				}
			}
		}
	}
}
MOTION
Frames: 6
Frame Time: 0.041667
33.262905 -46.821297 18.139999 4246.383030 38.201043 -1.054742 -0.779997 1.005800 5.403092 34.592039 -18.196252 -0.713861 -0.000007 -0.000005 4.236798 -8.136651 -3.866796 -0.383304 0.000002 0.000008 9.874397 80.973074 -8.861283 -0.343028 -0.000000 0.000002 2.173894 9.593817 2.660200 8.477813 2.681599 -0.377597 5.432504 7.914438 4.196704 8.314138 5.161497 0.000014 0.000003 -218.545235 -103.460762 -320.846989 -0.000000 0.000010 -10.869099 72.380457 -13.117629 21.105563 -0.000005 0.000004 -13.344802 8.682398 -10.558912 -37.464745 -2.381908 -1.419596 6.136597 0.515746 -17.303953 60.455842 -4.550500 0.000001 0.000010 -1133.829980 -470.461463 -332.534727 -0.000000 -0.000004 -11.106493 591.507059 -52.015077 593.825280 -0.000001 0.000003 -12.874298 -420.398690 -15.306983 23.238305 2.431898 0.469602 -2.489408 161.728457 -30.683409 147.255231 -0.000002 -0.000004 -18.200207 -128.131972 17.271726 137.925206 -0.000001 -0.000005 -16.279903 60.779879 10.181887 34.446990 -1.987991 -0.073499 -2.713002 81.118981 28.721704 -9.125254 0.000010 -0.000007 -19.547792 -1949.188238 135.546211 48.135068 -0.000002 0.000001 -14.881191 1796.384886 62.346964 -52.077163
33.257702 -46.812492 18.159004 4246.288609 38.221346 -1.116889 -0.780003 1.005799 5.403100 34.663398 -18.103109 -0.621381 -0.000002 -0.000001 4.236801 -8.161425 -3.861400 -0.382007 0.000006 0.000015 9.874403 80.966879 -8.853913 -0.415810 -0.000007 -0.000001 2.173894 9.558412 2.724628 8.508781 2.681605 -0.377599 5.432505 7.888536 4.267676 8.337583 5.161502 0.000008 0.000004 -218.492082 -103.478650 -320.763387 -0.000011 -0.000003 -10.869099 72.502492 -13.183366 21.064604 -0.000005 -0.000000 -13.344801 8.693505 -10.536110 -37.582686 -2.381905 -1.419597 6.136597 0.522731 -17.253480 60.406664 -4.550505 0.000004 0.000006 -1134.051169 -470.466927 -332.683297 -0.000001 -0.000004 -11.106489 591.627052 -51.898380 593.926476 -0.000003 -0.000001 -12.874298 -420.431885 -15.283530 23.142481 2.431892 0.469600 -2.489399 161.658147 -30.699617 147.152136 0.000013 0.000000 -18.200199 -128.212240 17.372516 137.896861 -0.000003 0.000003 -16.279905 60.864144 10.195508 34.406176 -1.987999 -0.073503 -2.712996 81.216987 28.810370 -9.098724 0.000002 0.000001 -19.547802 -1949.576193 135.721432 48.233362 -0.000008 -0.000001 -14.881194 1796.129710 62.276818 -52.209785
33.253708 -46.800701 18.179705 4246.178015 38.235139 -1.168313 -0.780001 1.005798 5.403093 34.746313 -18.006225 -0.542108 -0.000002 -0.000001 4.236794 -8.190245 -3.849869 -0.381307 0.000003 0.000004 9.874395 80.973061 -8.830666 -0.478111 -0.000002 -0.000001 2.173891 9.535757 2.763196 8.519707 2.681598 -0.377600 5.432503 7.881584 4.292817 8.308120 5.161503 0.000001 0.000004 -217.388734 -103.604469 -319.630395 -0.000002 0.000005 -10.869100 72.757866 -13.278796 21.072985 0.000001 0.000004 -13.344799 8.762066 -10.475728 -37.809178 -2.381907 -1.419600 6.136596 0.622904 -17.144026 60.448615 -4.550508 0.000001 0.000005 -1134.439670 -470.364638 -332.892328 0.000006 -0.000004 -11.106491 591.554160 -51.812459 593.868501 -0.000010 0.000005 -12.874297 -420.474805 -15.284614 23.192498 2.431890 0.469598 -2.489407 161.583643 -30.692111 147.005861 0.000002 -0.000009 -18.200207 -128.289299 17.450210 137.856235 -0.000000 -0.000000 -16.279905 60.958906 10.240607 34.267168 -1.988006 -0.073503 -2.713001 81.100970 28.881089 -8.967576 0.000006 0.000000 -19.547798 -1949.607011 135.768656 48.233010 0.000002 0.000006 -14.881192 1796.046764 62.247462 -52.279723
33.250809 -46.784393 18.203608 4246.042504 38.255732 -1.203497 -0.780005 1.005796 5.403093 34.892042 -17.908626 -0.443871 -0.000003 -0.000004 4.236798 -8.251898 -3.825265 -0.380133 0.000003 0.000003 9.874398 80.998879 -8.792406 -0.520155 -0.000002 0.000008 2.173893 9.512067 2.802422 8.526005 2.681604 -0.377597 5.432505 7.899337 4.291276 8.230270 5.161515 0.000005 -0.000003 -215.266785 -103.898809 -317.449571 0.000001 -0.000006 -10.869102 73.324656 -13.367321 21.105517 0.000007 -0.000008 -13.344805 8.780117 -10.456174 -37.957417 -2.381904 -1.419600 6.136600 0.826202 -17.025932 60.621132 -4.550504 0.000003 0.000010 -1134.986632 -470.115309 -333.160181 0.000001 -0.000004 -11.106493 591.393623 -51.745499 593.742607 -0.000002 -0.000013 -12.874306 -420.544965 -15.373543 23.243342 2.431894 0.469599 -2.489401 161.505342 -30.654668 146.807608 0.000004 -0.000005 -18.200199 -128.361794 17.499124 137.789327 0.000000 0.000004 -16.279898 61.063804 10.316410 34.020493 -1.988002 -0.073502 -2.712997 80.887369 28.930093 -8.772975 0.000000 -0.000007 -19.547798 -1949.455982 135.742456 48.194843 0.000002 0.000007 -14.881195 1796.122825 62.235748 -52.347833
33.248703 -46.762695 18.231409 4245.895191 38.275373 -1.225232 -0.780002 1.005805 5.403093 35.086272 -17.800832 -0.346291 0.000005 -0.000002 4.236801 -8.334865 -3.796234 -0.376555 -0.000003 0.000008 9.874399 81.030393 -8.733228 -0.539057 0.000002 0.000001 2.173893 9.501988 2.836599 8.528711 2.681600 -0.377599 5.432505 7.965644 4.226739 8.132369 5.161496 0.000001 -0.000003 -213.372036 -104.223380 -315.434064 0.000002 0.000004 -10.869101 73.873892 -13.395442 21.126036 0.000011 0.000008 -13.344801 8.737198 -10.439516 -38.111916 -2.381900 -1.419600 6.136596 1.064800 -17.013255 60.944829 -4.550506 0.000005 0.000007 -1135.510535 -469.693531 -333.447376 -0.000001 -0.000004 -11.106489 591.279969 -51.609767 593.687638 0.000001 -0.000003 -12.874301 -420.515076 -15.475790 23.353810 2.431889 0.469608 -2.489405 161.417956 -30.604544 146.565095 -0.000003 -0.000005 -18.200203 -128.433088 17.527179 137.697269 -0.000005 0.000003 -16.279902 61.173367 10.394005 33.731948 -1.988003 -0.073500 -2.712996 80.509202 28.946345 -8.493851 0.000008 -0.000005 -19.547794 -1949.064093 135.683006 48.129519 0.000002 0.000005 -14.881194 1796.391115 62.146061 -52.605915
33.248306 -46.736092 18.262302 4245.747440 38.318898 -1.211868 -0.779995 1.005807 5.403095 35.279740 -17.737716 -0.269157 -0.000000 -0.000002 4.236797 -8.435559 -3.776214 -0.378738 0.000010 -0.000002 9.874402 81.063649 -8.658890 -0.569567 0.000001 0.000002 2.173892 9.509917 2.847585 8.515685 2.681603 -0.377602 5.432504 8.032623 4.138319 7.567417 5.161509 0.000003 0.000003 -209.196168 -104.497325 -311.062114 -0.000001 -0.000007 -10.869103 74.579819 -13.508613 21.163242 -0.000001 0.000001 -13.344809 8.775586 -10.417528 -38.271859 -2.381900 -1.419600 6.136592 1.298579 -17.110479 61.361306 -4.550502 0.000000 0.000005 -1135.769645 -469.187387 -333.620180 0.000000 0.000001 -11.106493 591.199864 -51.509937 593.639717 -0.000003 -0.000010 -12.874297 -420.403061 -15.559658 23.483924 2.431910 0.469605 -2.489403 161.362577 -30.551716 146.338319 0.000001 -0.000004 -18.200199 -128.469861 17.537733 137.572851 -0.000012 -0.000001 -16.279911 61.282015 10.461669 33.447856 -1.987995 -0.073500 -2.712993 80.064406 28.902226 -8.158185 0.000006 -0.000003 -19.547791 -1948.598766 135.645057 48.080591 0.000001 -0.000003 -14.881191 1796.731750 61.967465 -52.980196
